<?xml version="1.0" encoding="UTF-8"?>
<svg version="1.1" xmlns="http://www.w3.org/2000/svg" width="1920" height="324">
<path d="M0 0 C65.34 0 130.68 0 198 0 C198 7.59 198 15.18 198 23 C140.25 23 82.5 23 23 23 C23 30.26 23 37.52 23 45 C41.81 45 60.62 45 80 45 C80 52.59 80 60.18 80 68 C61.19 68 42.38 68 23 68 C23 89.45 23 110.9 23 133 C45.11 133 67.22 133 90 133 C90 140.59 90 148.18 90 156 C60.3 156 30.6 156 0 156 C0 104.52 0 53.04 0 0 Z " fill="#0F1B25" transform="translate(864,55)"/>
<path d="M0 0 C30.36 0 60.72 0 92 0 C92 7.59 92 15.18 92 23 C69.23 23 46.46 23 23 23 C23 30.26 23 37.52 23 45 C41.81 45 60.62 45 80 45 C80 52.59 80 60.18 80 68 C61.19 68 42.38 68 23 68 C23 89.45 23 110.9 23 133 C75.47 133 127.94 133 182 133 C182 140.59 182 148.18 182 156 C121.94 156 61.88 156 0 156 C0 104.52 0 53.04 0 0 Z " fill="#0F1B25" transform="translate(1544,55)"/>
<path d="M0 0 C27.56733157 0 27.56733157 0 34.80859375 5.5703125 C35.66302567 6.15515915 36.51745758 6.7400058 37.39778137 7.34257507 C40.1167916 9.2204703 42.7741868 11.16915758 45.4375 13.125 C47.32588592 14.4491351 49.21820461 15.76767788 51.11425781 17.08081055 C54.93000333 19.73242104 58.72492683 22.41013518 62.50537109 25.11181641 C69.06713084 29.78336205 75.7654788 34.23749059 82.48950195 38.6706543 C88.67700008 42.75429517 94.83583766 46.8812188 101 51 C101 34.17 101 17.34 101 0 C108.92 0 116.84 0 125 0 C125 51.48 125 102.96 125 156 C117.08 156 109.16 156 101 156 C101.20012695 153.81930908 101.40025391 151.63861816 101.60644531 149.3918457 C106.7999339 109.45644973 106.7999339 109.45644973 95.98876953 72.74853516 C86.56083292 62.94253046 73.71068301 57.36526727 61.30029297 52.28515625 C54.44366171 49.44368853 48.80382893 45.55402671 42.875 41.125 C41.33518102 40.05864683 39.7912626 38.99817428 38.2421875 37.9453125 C33.48585932 34.64303676 28.74360628 31.3205244 24 28 C23.67 70.24 23.34 112.48 23 156 C15.41 156 7.82 156 0 156 C0 104.52 0 53.04 0 0 Z " fill="#0F1B25" transform="translate(1396,55)"/>
<path d="M0 0 C27.56733157 0 27.56733157 0 34.80859375 5.5703125 C35.66302567 6.15515915 36.51745758 6.7400058 37.39778137 7.34257507 C40.1167916 9.2204703 42.7741868 11.16915758 45.4375 13.125 C47.32588592 14.4491351 49.21820461 15.76767788 51.11425781 17.08081055 C54.93000333 19.73242104 58.72492683 22.41013518 62.50537109 25.11181641 C69.06713084 29.78336205 75.7654788 34.23749059 82.48950195 38.6706543 C88.67700008 42.75429517 94.83583766 46.8812188 101 51 C101 34.17 101 17.34 101 0 C108.92 0 116.84 0 125 0 C125 51.48 125 102.96 125 156 C117.08 156 109.16 156 101 156 C101.20012695 153.81930908 101.40025391 151.63861816 101.60644531 149.3918457 C106.7999339 109.45644973 106.7999339 109.45644973 95.98876953 72.74853516 C86.56083292 62.94253046 73.71068301 57.36526727 61.30029297 52.28515625 C54.44366171 49.44368853 48.80382893 45.55402671 42.875 41.125 C41.33518102 40.05864683 39.7912626 38.99817428 38.2421875 37.9453125 C33.48585932 34.64303676 28.74360628 31.3205244 24 28 C23.67 70.24 23.34 112.48 23 156 C15.41 156 7.82 156 0 156 C0 104.52 0 53.04 0 0 Z " fill="#0F1B25" transform="translate(1247,55)"/>
<path d="M0 0 C15.1903125 -0.12375 15.1903125 -0.12375 30.6875 -0.25 C33.85819092 -0.28641602 37.02888184 -0.32283203 40.2956543 -0.36035156 C42.84683559 -0.37204879 45.39802443 -0.38223816 47.94921875 -0.390625 C49.8898822 -0.4213208 49.8898822 -0.4213208 51.86975098 -0.45263672 C67.77964662 -0.45865692 81.54013666 4.67500874 93.25 15.5625 C104.79939629 27.76282845 110.38601003 42.79396562 110.21484375 59.4921875 C109.23117235 75.55285878 102.10394472 88.99368656 90.125 99.625 C87 102 87 102 85 102 C92.98667876 116.40491415 101.32467302 130.59985593 109.83203125 144.703125 C110.25484375 145.40429443 110.67765625 146.10546387 111.11328125 146.82788086 C111.89353726 148.11914737 112.67597602 149.40909829 113.4609375 150.69750977 C116 154.89166933 116 154.89166933 116 156 C111.62614201 156.26210888 107.25430191 156.42144886 102.875 156.5625 C101.6375 156.63791016 100.4 156.71332031 99.125 156.79101562 C90.23223586 157.00616314 90.23223586 157.00616314 87.05981445 154.41577148 C85.43402389 152.02962294 84.23187478 149.61147438 83 147 C81.78195052 144.89770315 80.55064659 142.80304903 79.30859375 140.71484375 C78.01512244 138.45750651 76.72480749 136.198358 75.4375 133.9375 C74.14592276 131.67498633 72.85298491 129.41324875 71.55859375 127.15234375 C70.99454834 126.16226318 70.43050293 125.17218262 69.84936523 124.15209961 C69.23907471 123.11190674 68.62878418 122.07171387 68 121 C67.66681259 120.29771271 67.33362518 119.59542542 66.99034119 118.87185669 C64.87035331 114.66715608 64.87035331 114.66715608 61.01423645 112.27012634 C58.5638811 111.97643408 56.22890939 111.94358533 53.76171875 112 C52.88095169 111.98912354 52.00018463 111.97824707 51.09272766 111.96704102 C48.28973413 111.9409211 45.49039536 111.96969843 42.6875 112 C40.78318427 111.99190686 38.87888016 111.98022849 36.97460938 111.96484375 C32.31551908 111.93501812 27.65893805 111.95440795 23 112 C23 115.63 23 119.26 23 123 C15.41 123 7.82 123 0 123 C0 82.41 0 41.82 0 0 Z M23 23 C23 44.78 23 66.56 23 89 C28.40375 89.061875 33.8075 89.12375 39.375 89.1875 C41.05899902 89.21481201 42.74299805 89.24212402 44.47802734 89.27026367 C57.52025973 89.39489033 67.86159409 87.55838589 77.75390625 78.37109375 C84.89762085 70.65444965 86.7147997 63.08459993 86.37109375 52.6484375 C85.34445852 42.55499218 80.46036852 35.72171817 73 29 C65.89863634 24.15220562 58.09674839 22.68477846 49.66015625 22.8046875 C48.9791687 22.80670166 48.29818115 22.80871582 47.59655762 22.81079102 C45.08513524 22.82114971 42.57380989 22.84907118 40.0625 22.875 C31.6165625 22.936875 31.6165625 22.936875 23 23 Z " fill="#0F1B25" transform="translate(1658,55)"/>
<path d="M0 0 C15.84 0 31.68 0 48 0 C58.36050416 33.33612997 68.62167751 66.70268602 78.87177086 100.07290363 C80.40371693 105.06003798 81.93700309 110.04675816 83.47119141 115.03320312 C85.18607323 120.60806607 86.89698723 126.1841262 88.60366821 131.76150513 C89.19709528 133.69869465 89.7919444 135.63544918 90.38827515 137.57174683 C91.18986375 140.17555425 91.98631729 142.78087304 92.78125 145.38671875 C93.01125198 146.12968201 93.24125397 146.87264526 93.47822571 147.63812256 C94.35810723 150.5399682 95 152.94809319 95 156 C86.75 156 78.5 156 70 156 C65.71 142.14 61.42 128.28 57 114 C24.33 113.505 24.33 113.505 -9 113 C-9.66 115.97 -10.32 118.94 -11 122 C-12 123 -12 123 -14.40844727 123.11352539 C-15.45057373 123.10828857 -16.4927002 123.10305176 -17.56640625 123.09765625 C-18.69111328 123.09443359 -19.81582031 123.09121094 -20.97460938 123.08789062 C-22.15861328 123.07951172 -23.34261719 123.07113281 -24.5625 123.0625 C-25.75037109 123.05798828 -26.93824219 123.05347656 -28.16210938 123.04882812 C-31.10812226 123.03699675 -34.05403681 123.02051287 -37 123 C-31.95375221 104.88028386 -26.4336371 86.90978532 -20.91424561 68.93023682 C-18.76707341 61.93475089 -16.62344685 54.93817793 -14.48046875 47.94140625 C-14.2497253 47.18829792 -14.01898186 46.43518959 -13.78124619 45.6592598 C-9.12499084 30.45796686 -4.55336376 15.2324759 0 0 Z M18 23 C15.39069909 31.58756797 12.78287889 40.17558375 10.17697144 48.76418209 C8.96702273 52.75178435 7.75655591 56.73922783 6.54492188 60.72631836 C5.37662036 64.57088325 4.2096578 68.41585216 3.04364014 72.26111031 C2.59755564 73.73133513 2.15098099 75.20141132 1.70391846 76.67133904 C1.07997707 78.72313355 0.45774828 80.77543982 -0.1640625 82.82788086 C-0.51936035 83.99814316 -0.8746582 85.16840546 -1.24072266 86.37413025 C-2.04629559 88.70453444 -2.04629559 88.70453444 -2 90 C15.16 90 32.32 90 50 90 C47.74662047 80.84739052 47.74662047 80.84739052 45.20654297 71.80419922 C44.88966522 70.75046112 44.57278748 69.69672302 44.24630737 68.61105347 C43.91494781 67.5199527 43.58358826 66.42885193 43.2421875 65.3046875 C42.8936673 64.15001984 42.54514709 62.99535217 42.18606567 61.80569458 C41.45630514 59.39023119 40.72515944 56.97518588 39.99267578 54.56054688 C38.86782417 50.85133764 37.7480535 47.14062138 36.62890625 43.4296875 C35.9169636 41.07543102 35.20473447 38.72126115 34.4921875 36.3671875 C34.15677948 35.25584442 33.82137146 34.14450134 33.47579956 32.9994812 C33.16522614 31.97726471 32.85465271 30.95504822 32.53466797 29.90185547 C32.26169891 29.00095184 31.98872986 28.10004822 31.70748901 27.17184448 C31.05482075 24.98615375 31.05482075 24.98615375 30 23 C26.04 23 22.08 23 18 23 Z " fill="#0F1B25" transform="translate(1143,55)"/>
<path d="M0 0 C7.59 0 15.18 0 23 0 C23 14.85 23 29.7 23 45 C48.74 45 74.48 45 101 45 C101 30.15 101 15.3 101 0 C108.92 0 116.84 0 125 0 C125 51.48 125 102.96 125 156 C117.08 156 109.16 156 101 156 C101 126.96 101 97.92 101 68 C75.26 68 49.52 68 23 68 C23 86.15 23 104.3 23 123 C15.41 123 7.82 123 0 123 C0 82.41 0 41.82 0 0 Z " fill="#0F1B25" transform="translate(715,55)"/>
<path d="M0 0 C1.25619141 0.00451172 2.51238281 0.00902344 3.80664062 0.01367188 C6.89194771 0.02540308 9.97723012 0.04333683 13.0625 0.0625 C13.0625 7.6525 13.0625 15.2425 13.0625 23.0625 C9.5975 23.145 6.1325 23.2275 2.5625 23.3125 C-15.49705856 23.99919464 -31.90548957 27.56989058 -44.83203125 41.2734375 C-55.73886881 55.72145609 -58.51268553 71.31652684 -56.9375 89.0625 C-54.89260961 101.88108978 -47.71692222 113.85062851 -37.375 121.625 C-35.58549362 122.80642169 -33.7745425 123.95644162 -31.9375 125.0625 C-31.24785156 125.48015625 -30.55820312 125.8978125 -29.84765625 126.328125 C-20.5219142 131.43916563 -10.67655986 132.50816856 -0.21411133 132.49487305 C1.00669128 132.5050647 2.2274939 132.51525635 3.48529053 132.52575684 C6.79664621 132.55057987 10.10756006 132.56257632 13.41896987 132.56861091 C16.89301317 132.57806126 20.36693152 132.60426938 23.84089661 132.62861633 C30.40308393 132.67210336 36.96524677 132.7007591 43.52753383 132.72393972 C51.00534927 132.75108747 58.4830379 132.79499259 65.96076238 132.84022844 C81.32795699 132.93281952 96.69513873 133.0024051 112.0625 133.0625 C112.0625 140.6525 112.0625 148.2425 112.0625 156.0625 C95.50207908 156.15543396 78.94176717 156.22665037 62.38114834 156.26974869 C54.6902874 156.29029947 46.99959231 156.31827516 39.30883789 156.36425781 C32.5989169 156.40435669 25.88911614 156.42998707 19.17907864 156.43885398 C15.63214247 156.44403014 12.08554997 156.45603559 8.5387249 156.48542023 C-8.90668321 156.62434244 -24.57957777 156.6386459 -40.3125 148.25 C-40.97894531 147.90453125 -41.64539063 147.5590625 -42.33203125 147.203125 C-47.67522551 144.35967074 -52.44181557 141.13218208 -56.9375 137.0625 C-57.5975 136.49402344 -58.2575 135.92554688 -58.9375 135.33984375 C-73.38297734 122.05113315 -81.32375648 102.52570231 -82.22265625 83.15234375 C-82.74637218 63.5959337 -78.51694813 44.48330192 -65.9375 29.0625 C-65.25816406 28.22074219 -64.57882812 27.37898438 -63.87890625 26.51171875 C-51.91756281 12.46087147 -34.5844077 2.63431133 -16.15307617 0.23022461 C-10.78214002 -0.17636857 -5.38233606 -0.03669133 0 0 Z " fill="#0F1B25" transform="translate(685.9375,54.9375)"/>
<path d="M0 0 C3.774375 0.0928125 3.774375 0.0928125 7.625 0.1875 C7.625 9.0975 7.625 18.0075 7.625 27.1875 C4.655 28.1775 1.685 29.1675 -1.375 30.1875 C-4.07061591 32.52107489 -4.31796575 33.71971034 -4.74973011 37.26100159 C-4.74956237 38.47626022 -4.74939463 39.69151886 -4.7492218 40.94360352 C-4.75518341 41.96130121 -4.75518341 41.96130121 -4.76126546 42.99955845 C-4.77088684 45.27205449 -4.75907184 47.54392772 -4.74731445 49.81640625 C-4.74974248 51.44595573 -4.75346191 53.07550373 -4.75837708 54.70504761 C-4.76778825 59.13063746 -4.75835876 63.55600623 -4.74504495 67.98157883 C-4.7337349 72.61084784 -4.73783761 77.2401059 -4.73979187 81.86938477 C-4.74067499 89.64375422 -4.72959077 97.41803651 -4.71118164 105.19238281 C-4.69001375 114.18331594 -4.68650404 123.17412135 -4.6927436 132.16507435 C-4.69843647 140.8105774 -4.69279249 149.45603542 -4.68157005 158.10153198 C-4.67692306 161.78246899 -4.67605065 165.46337848 -4.6781559 169.14431763 C-4.68003828 173.47813275 -4.67193876 177.81181773 -4.6560955 182.14560318 C-4.65184969 183.73712755 -4.6510041 185.32866512 -4.65378571 186.92019272 C-4.657004 189.09073724 -4.64793487 191.26089203 -4.63569641 193.43139648 C-4.63364354 194.64665512 -4.63159067 195.86191376 -4.62947559 197.11399841 C-4.54336664 200.47057591 -4.54336664 200.47057591 -2.375 204.1875 C0.925 205.5075 4.225 206.8275 7.625 208.1875 C7.625 217.0975 7.625 226.0075 7.625 235.1875 C-4.39878683 235.84935983 -11.28529363 235.00327475 -20.875 227.13671875 C-27.04751111 221.42105468 -30.72818444 215.12794667 -33.375 207.1875 C-33.46572258 204.73863511 -33.5011038 202.3189223 -33.48852539 199.87036133 C-33.48867142 199.12865189 -33.48881744 198.38694244 -33.4889679 197.62275696 C-33.48827134 195.17165195 -33.48049097 192.72062298 -33.47265625 190.26953125 C-33.47079116 188.56988059 -33.46936768 186.87022939 -33.46836853 185.170578 C-33.46455055 180.69730139 -33.45472638 176.22405724 -33.44366455 171.75079346 C-33.43343499 167.18608031 -33.4288676 162.62136193 -33.42382812 158.05664062 C-33.41310348 149.10024386 -33.39551248 140.14387971 -33.375 131.1875 C-41.625 131.1875 -49.875 131.1875 -58.375 131.1875 C-58.375 121.9475 -58.375 112.7075 -58.375 103.1875 C-50.125 103.1875 -41.875 103.1875 -33.375 103.1875 C-33.39594727 100.93236572 -33.41689453 98.67723145 -33.43847656 96.35375977 C-33.50494559 88.87801731 -33.54901459 81.40226133 -33.58224869 73.926301 C-33.60306663 69.39642688 -33.63127747 64.86685717 -33.67675781 60.3371582 C-33.72042351 55.96048454 -33.74418062 51.5841025 -33.75450897 47.20722771 C-33.76186334 45.5427587 -33.77622435 43.8783045 -33.79792023 42.21396065 C-34.00790649 25.42806777 -34.00790649 25.42806777 -29.375 18.1875 C-28.91917542 17.47167252 -28.46335083 16.75584503 -27.99371338 16.01832581 C-21.46577839 6.24388626 -11.82582389 -0.41372077 0 0 Z " fill="#0F1B25" transform="translate(210.375,58.8125)"/>
<path d="M0 0 C12.21527938 -0.62642458 19.56868964 -0.2055272 29.2734375 7.8984375 C36.18055423 14.39472201 40.78765299 20.84344563 41.12025452 30.48652649 C41.12313115 31.83907961 41.12054559 33.19165149 41.11352539 34.54418945 C41.11367142 35.28619095 41.11381744 36.02819244 41.1139679 36.79267883 C41.11327404 39.2329099 41.1055064 41.6730636 41.09765625 44.11328125 C41.0957902 45.81007343 41.09436718 47.50686615 41.09336853 49.20365906 C41.0895581 53.6604665 41.07974043 58.11724113 41.06866455 62.57403564 C41.0584187 67.12552446 41.05386412 71.67701859 41.04882812 76.22851562 C41.03811681 85.15236045 41.02053197 94.07617236 41 103 C49.58 103 58.16 103 67 103 C67 112.24 67 121.48 67 131 C58.42 131 49.84 131 41 131 C41.01571045 133.29590088 41.0314209 135.59180176 41.04760742 137.95727539 C41.09739508 145.55679937 41.13048561 153.1563307 41.15543652 160.75597477 C41.17106893 165.36206273 41.19226278 169.96798309 41.22631836 174.57397461 C41.25899847 179.02194801 41.27687125 183.46976054 41.28463173 187.91784477 C41.29015974 189.61185677 41.30095459 191.30586032 41.31719017 192.99980354 C41.33907983 195.37904775 41.34196217 197.75763362 41.34057617 200.13696289 C41.351362 200.83180283 41.36214783 201.52664276 41.3732605 202.24253845 C41.31368959 211.74028009 36.18928329 218.83689896 29.875 225.5625 C22.78465638 232.37659646 16.82856339 235.44584506 6.875 235.3125 C4.60625 235.209375 2.3375 235.10625 0 235 C0 226.09 0 217.18 0 208 C2.97 207.01 5.94 206.02 9 205 C12.32371185 201.78015414 12.93121296 198.55665082 13.13142776 194.02578926 C13.13440243 192.85737432 13.13737709 191.68895939 13.14044189 190.48513794 C13.14341302 189.83258526 13.14638414 189.18003258 13.1494453 188.50770557 C13.15811094 186.3229951 13.15963872 184.13833957 13.16113281 181.95361328 C13.16576244 180.38642256 13.17078729 178.81923297 13.17617798 177.25204468 C13.1892886 172.9958165 13.19574413 168.73960408 13.20018864 164.48335886 C13.20312104 161.82390411 13.20722613 159.16445365 13.21169281 156.50500107 C13.22536315 148.18307647 13.23503253 139.8611617 13.2388947 131.53922665 C13.24337685 121.93447873 13.26093397 112.32987302 13.2898953 102.72516835 C13.31150974 95.29915008 13.32159883 87.87317184 13.32293582 80.44712245 C13.32398386 76.01251499 13.32989166 71.57804129 13.34775543 67.14346695 C13.36423241 62.97214132 13.36639349 58.80105009 13.35761642 54.62970352 C13.35684589 53.10028455 13.36119092 51.57085299 13.37107468 50.04146576 C13.38379461 47.95030844 13.37791806 45.85998131 13.36749268 43.76882935 C13.36895924 42.59966036 13.3704258 41.43049137 13.3719368 40.22589302 C12.94824306 36.55110023 11.90568002 34.15399174 10 31 C6.52126499 28.34517591 4.44556858 27.88911372 0 27 C0 18.09 0 9.18 0 0 Z " fill="#0F1B25" transform="translate(372,59)"/>
<path d="M0 0 C69.09927162 0 69.09927162 0 83.92578125 13.765625 C92.06988739 22.53856042 95.58092557 33.07653906 95.4375 44.875 C95.42992676 45.75196533 95.42235352 46.62893066 95.41455078 47.5324707 C95.24267333 54.30406602 94.26329118 59.98171844 91 66 C90.57589844 66.78375 90.15179687 67.5675 89.71484375 68.375 C82.94976129 79.53079057 72.43170404 86.50383614 60 90 C57.14327959 90.16273122 54.39114659 90.23423027 51.5390625 90.1953125 C50.74849457 90.1924826 49.95792664 90.18965271 49.1434021 90.18673706 C46.63710916 90.17560955 44.13118355 90.15051926 41.625 90.125 C39.91797394 90.11496058 38.21094223 90.10583641 36.50390625 90.09765625 C32.33568472 90.0774025 28.16824988 90.03824082 24 90 C24 100.89 24 111.78 24 123 C16.08 123 8.16 123 0 123 C0 82.41 0 41.82 0 0 Z M24 23 C24 37.52 24 52.04 24 67 C29.115 67.0825 34.23 67.165 39.5 67.25 C41.09779297 67.28641602 42.69558594 67.32283203 44.34179688 67.36035156 C52.99408085 67.42791348 59.18713846 67.1531836 66.0234375 61.25390625 C66.46945312 60.69574219 66.91546875 60.13757813 67.375 59.5625 C67.83648438 59.00691406 68.29796875 58.45132813 68.7734375 57.87890625 C72.48576087 52.19219434 72.73312258 46.60738327 72 40 C70.01321911 33.05221533 65.23647484 28.53111421 59.15625 24.8984375 C54.45188006 22.93828336 49.54111829 22.87837563 44.5078125 22.90234375 C43.4264502 22.90484131 42.34508789 22.90733887 41.23095703 22.90991211 C39.87599121 22.91901611 38.52102539 22.92812012 37.125 22.9375 C30.628125 22.9684375 30.628125 22.9684375 24 23 Z " fill="#0F1B25" transform="translate(967,88)"/>
<path d="M0 0 C40.26 0 80.52 0 122 0 C122 7.59 122 15.18 122 23 C105.5 23 89 23 72 23 C72 66.89 72 110.78 72 156 C64.41 156 56.82 156 49 156 C49 112.11 49 68.22 49 23 C32.83 23 16.66 23 0 23 C0 15.41 0 7.82 0 0 Z " fill="#0F1B25" transform="translate(480,55)"/>
<path d="M0 0 C7.59 0 15.18 0 23 0 C23 43.89 23 87.78 23 133 C52.04 133 81.08 133 111 133 C111 140.59 111 148.18 111 156 C74.37 156 37.74 156 0 156 C0 104.52 0 53.04 0 0 Z " fill="#0F1B25" transform="translate(1074,55)"/>
<path d="M0 0 C1.87034451 3.59599442 3.71842849 7.20297147 5.5625 10.8125 C6.09552734 11.83666016 6.62855469 12.86082031 7.17773438 13.91601562 C7.67724609 14.89892578 8.17675781 15.88183594 8.69140625 16.89453125 C9.15748291 17.80050049 9.62355957 18.70646973 10.10375977 19.63989258 C11 22 11 22 10 25 C7.76026609 26.3115198 5.58062441 27.44018719 3.23828125 28.5390625 C1.76755078 29.25123515 0.29702014 29.96382057 -1.17333984 30.67675781 C-1.95868103 31.05352661 -2.74402222 31.43029541 -3.55316162 31.81848145 C-7.75017425 33.84511645 -11.91396314 35.93810238 -16.08203125 38.0234375 C-17.8573091 38.90908026 -19.63270116 39.79449412 -21.40820312 40.6796875 C-22.29902588 41.1240918 -23.18984863 41.56849609 -24.10766602 42.02636719 C-25.90515725 42.92259804 -27.7030068 43.81811062 -29.5012207 44.71289062 C-40.65762177 50.26517912 -51.74279365 55.92919598 -62.7565918 61.75927734 C-68.14074283 64.60824436 -73.55810357 67.38804621 -79 70.125 C-79.9384375 70.60453125 -80.876875 71.0840625 -81.84375 71.578125 C-82.7409375 72.02929688 -83.638125 72.48046875 -84.5625 72.9453125 C-85.34753906 73.34250488 -86.13257813 73.73969727 -86.94140625 74.14892578 C-89 75 -89 75 -92 75 C-93.83979221 71.3782427 -95.67072866 67.75208102 -97.5 64.125 C-98.02464844 63.09246094 -98.54929688 62.05992187 -99.08984375 60.99609375 C-99.58613281 60.00996094 -100.08242187 59.02382812 -100.59375 58.0078125 C-101.05458984 57.09660645 -101.51542969 56.18540039 -101.99023438 55.24658203 C-103 53 -103 53 -103 51 C-90.65161828 44.48581269 -78.25178753 38.09018773 -65.75 31.875 C-57.99621908 28.02001066 -50.26704797 24.13506475 -42.625 20.0625 C-34.82185897 15.91453317 -26.95733655 11.89180209 -19.06512451 7.91647339 C-17.69528762 7.22564402 -16.32649915 6.53273155 -14.95880127 5.837677 C-13.03798918 4.86234769 -11.11335996 3.89500298 -9.1875 2.9296875 C-8.06730469 2.36491699 -6.94710937 1.80014648 -5.79296875 1.21826172 C-3 0 -3 0 0 0 Z " fill="#FFE100" transform="translate(341,176)"/>
<path d="M0 0 C1.83979221 3.6217573 3.67072866 7.24791898 5.5 10.875 C6.02464844 11.90753906 6.54929687 12.94007813 7.08984375 14.00390625 C7.83427734 15.48310547 7.83427734 15.48310547 8.59375 16.9921875 C9.05458984 17.90339355 9.51542969 18.81459961 9.99023438 19.75341797 C11 22 11 22 11 24 C-2.4481222 31.02283763 -15.91358119 37.99739555 -29.5 44.75 C-36.83759202 48.39702274 -44.14159838 52.08782153 -51.375 55.9375 C-58.89848856 59.93246571 -66.47362954 63.82264664 -74.0803833 67.65628052 C-75.35321657 68.29860582 -76.62500092 68.94301417 -77.89569092 69.58956909 C-79.67744285 70.49536101 -81.46363866 71.39239528 -83.25 72.2890625 C-84.28640625 72.81193848 -85.3228125 73.33481445 -86.390625 73.87353516 C-89 75 -89 75 -92 75 C-93.83979221 71.3782427 -95.67072866 67.75208102 -97.5 64.125 C-98.02464844 63.09246094 -98.54929688 62.05992187 -99.08984375 60.99609375 C-99.58613281 60.00996094 -100.08242187 59.02382812 -100.59375 58.0078125 C-101.05458984 57.09660645 -101.51542969 56.18540039 -101.99023438 55.24658203 C-103 53 -103 53 -103 51 C-89.88084584 44.15336508 -76.75373364 37.33349017 -63.5 30.75 C-56.57859404 27.31174361 -49.69699773 23.81899879 -42.875 20.1875 C-34.9861166 15.99937945 -27.03774042 11.93238451 -19.06109619 7.91445923 C-17.69296995 7.22448102 -16.32589201 6.53242003 -14.9598999 5.83822632 C-13.03872238 4.86271237 -11.11372627 3.89518588 -9.1875 2.9296875 C-8.06730469 2.36491699 -6.94710937 1.80014648 -5.79296875 1.21826172 C-3 0 -3 0 0 0 Z " fill="#FF0923" transform="translate(341,139)"/>
<path d="M0 0 C3.84443357 3.51156103 5.80981929 7.93458168 8.1875 12.5 C8.65091797 13.36753906 9.11433594 14.23507813 9.59179688 15.12890625 C10.24825195 16.37994141 10.24825195 16.37994141 10.91796875 17.65625 C11.31781982 18.41744141 11.7176709 19.17863281 12.12963867 19.96289062 C13 22 13 22 13 25 C11.88778076 25.55349121 10.77556152 26.10698242 9.62963867 26.67724609 C5.40329447 28.78119489 1.1783887 30.8880192 -3.04614258 32.99560547 C-4.85598802 33.89805245 -6.66619515 34.79977455 -8.47680664 35.70068359 C-18.6623765 40.7693992 -28.79685405 45.91393951 -38.84994507 51.24079895 C-47.27447813 55.69466721 -55.78019399 59.98314698 -64.3034668 64.24438477 C-66.99031451 65.58892929 -69.67386647 66.93991413 -72.35742188 68.29101562 C-74.08053445 69.15403472 -75.80383438 70.01667986 -77.52734375 70.87890625 C-78.32204575 71.27985001 -79.11674774 71.68079376 -79.93553162 72.09388733 C-80.67473343 72.46194992 -81.41393524 72.83001251 -82.17553711 73.20922852 C-82.81994247 73.53214371 -83.46434784 73.8550589 -84.12828064 74.1877594 C-86.06399099 75.02776916 -87.94238497 75.54654984 -90 76 C-91.87034451 72.40400558 -93.71842849 68.79702853 -95.5625 65.1875 C-96.09552734 64.16333984 -96.62855469 63.13917969 -97.17773438 62.08398438 C-97.67724609 61.10107422 -98.17675781 60.11816406 -98.69140625 59.10546875 C-99.39052124 57.74651489 -99.39052124 57.74651489 -100.10375977 56.36010742 C-101 54 -101 54 -100 51 C-97.49946995 49.47806874 -95.04481047 48.12621059 -92.4375 46.8125 C-91.66301514 46.41305176 -90.88853027 46.01360352 -90.09057617 45.60205078 C-87.73253487 44.39022281 -85.36763753 43.19295239 -83 42 C-82.37706055 41.68434082 -81.75412109 41.36868164 -81.11230469 41.04345703 C-77.29574841 39.11168582 -73.46605007 37.20696284 -69.63378906 35.30664062 C-63.81483967 32.41982035 -57.99996654 29.52484732 -52.1875 26.625 C-51.53137726 26.29769897 -50.87525452 25.97039795 -50.19924927 25.63317871 C-41.59274762 21.33635431 -33.03095837 16.96726312 -24.53857422 12.44824219 C-16.43646912 8.14439812 -8.22282422 4.06720338 0 0 Z " fill="#007B73" transform="translate(339,100)"/>
<path d="M0 0 C5.55151604 4.08947555 9.26054747 9.31139086 11 16 C11.95579714 24.23288899 11.23857574 31.22551436 6.55859375 38.125 C1.70085689 44.25634305 -3.3368394 47.38565638 -11.11328125 48.41015625 C-19.69583723 48.80348138 -26.31013455 47.09369611 -32.84375 41.390625 C-38.99648656 34.81564181 -40.61188691 27.83180028 -40.34375 18.9609375 C-39.5144838 11.81794004 -36.31149527 6.3449636 -31.046875 1.5078125 C-21.22113499 -5.73023262 -10.47173554 -5.86001095 0 0 Z M-31.375 7.375 C-36.25716917 13.66344616 -36.86308104 20.23227065 -36 28 C-34.15821961 34.69102498 -29.5670547 39.0976568 -24 43 C-18.38671341 45.63480799 -12.89753776 45.7819037 -7 43.9375 C-1.06637971 41.48340074 2.70173956 37.17772719 5.9375 31.75 C8.08434655 24.17289452 7.92076118 17.10118703 4.3359375 10.0078125 C1.0049543 5.00159798 -3.32104042 1.87881746 -9 0 C-18.14927127 -1.17613951 -25.07876152 0.53258179 -31.375 7.375 Z " fill="#0F1B25" transform="translate(1761,248)"/>
<path d="M0 0 C5.55151604 4.08947555 9.26054747 9.31139086 11 16 C11.95579714 24.23288899 11.23857574 31.22551436 6.55859375 38.125 C1.70085689 44.25634305 -3.3368394 47.38565638 -11.11328125 48.41015625 C-19.69583723 48.80348138 -26.31013455 47.09369611 -32.84375 41.390625 C-38.99648656 34.81564181 -40.61188691 27.83180028 -40.34375 18.9609375 C-39.5144838 11.81794004 -36.31149527 6.3449636 -31.046875 1.5078125 C-21.22113499 -5.73023262 -10.47173554 -5.86001095 0 0 Z M-31.375 7.375 C-36.25716917 13.66344616 -36.86308104 20.23227065 -36 28 C-34.15821961 34.69102498 -29.5670547 39.0976568 -24 43 C-18.38671341 45.63480799 -12.89753776 45.7819037 -7 43.9375 C-1.06637971 41.48340074 2.70173956 37.17772719 5.9375 31.75 C8.08434655 24.17289452 7.92076118 17.10118703 4.3359375 10.0078125 C1.0049543 5.00159798 -3.32104042 1.87881746 -9 0 C-18.14927127 -1.17613951 -25.07876152 0.53258179 -31.375 7.375 Z " fill="#0F1B25" transform="translate(1282,248)"/>
<path d="M0 0 C5.55151604 4.08947555 9.26054747 9.31139086 11 16 C11.95579714 24.23288899 11.23857574 31.22551436 6.55859375 38.125 C1.70085689 44.25634305 -3.3368394 47.38565638 -11.11328125 48.41015625 C-19.69583723 48.80348138 -26.31013455 47.09369611 -32.84375 41.390625 C-38.99648656 34.81564181 -40.61188691 27.83180028 -40.34375 18.9609375 C-39.5144838 11.81794004 -36.31149527 6.3449636 -31.046875 1.5078125 C-21.22113499 -5.73023262 -10.47173554 -5.86001095 0 0 Z M-31.375 7.375 C-36.25716917 13.66344616 -36.86308104 20.23227065 -36 28 C-34.15821961 34.69102498 -29.5670547 39.0976568 -24 43 C-18.38671341 45.63480799 -12.89753776 45.7819037 -7 43.9375 C-1.06637971 41.48340074 2.70173956 37.17772719 5.9375 31.75 C8.08434655 24.17289452 7.92076118 17.10118703 4.3359375 10.0078125 C1.0049543 5.00159798 -3.32104042 1.87881746 -9 0 C-18.14927127 -1.17613951 -25.07876152 0.53258179 -31.375 7.375 Z " fill="#0F1B25" transform="translate(1150,248)"/>
<path d="M0 0 C6 0 6 0 7.72607422 1.20898438 C9.20255501 3.28477263 10.30034104 5.34829674 11.3828125 7.65625 C11.82882812 8.59855469 12.27484375 9.54085937 12.734375 10.51171875 C13.19328125 11.49785156 13.6521875 12.48398437 14.125 13.5 C14.77855469 14.88638672 14.77855469 14.88638672 15.4453125 16.30078125 C16.96784208 19.53183123 18.48362378 22.7660576 20 26 C22.97 32.27 25.94 38.54 29 45 C29.33 30.15 29.66 15.3 30 0 C31.32 0 32.64 0 34 0 C34 16.5 34 33 34 50 C31.69 50 29.38 50 27 50 C24.81392018 47.29049262 23.50614595 45.09206539 22 42 C21.46101074 40.9275 20.92202148 39.855 20.36669922 38.75 C18.51202742 35.0211736 16.72324289 31.2621916 14.9375 27.5 C14.01466221 25.56701256 13.09048207 23.63467252 12.16590881 21.70251465 C11.32837998 19.95051127 10.49404194 18.19698357 9.65991211 16.44335938 C7.81199514 12.60999844 5.90312654 8.80625309 4 5 C3.67 19.85 3.34 34.7 3 50 C2.01 50 1.02 50 0 50 C0 33.5 0 17 0 0 Z " fill="#0F1B25" transform="translate(961,245)"/>
<path d="M0 0 C6 0 6 0 7.72607422 1.20898438 C9.20255501 3.28477263 10.30034104 5.34829674 11.3828125 7.65625 C11.82882812 8.59855469 12.27484375 9.54085937 12.734375 10.51171875 C13.19328125 11.49785156 13.6521875 12.48398437 14.125 13.5 C14.77855469 14.88638672 14.77855469 14.88638672 15.4453125 16.30078125 C16.96784208 19.53183123 18.48362378 22.7660576 20 26 C22.97 32.27 25.94 38.54 29 45 C29.33 30.15 29.66 15.3 30 0 C31.32 0 32.64 0 34 0 C34 16.5 34 33 34 50 C31.69 50 29.38 50 27 50 C24.81392018 47.29049262 23.50614595 45.09206539 22 42 C21.46101074 40.9275 20.92202148 39.855 20.36669922 38.75 C18.51202742 35.0211736 16.72324289 31.2621916 14.9375 27.5 C14.01466221 25.56701256 13.09048207 23.63467252 12.16590881 21.70251465 C11.32837998 19.95051127 10.49404194 18.19698357 9.65991211 16.44335938 C7.81199514 12.60999844 5.90312654 8.80625309 4 5 C3.67 19.85 3.34 34.7 3 50 C2.01 50 1.02 50 0 50 C0 33.5 0 17 0 0 Z " fill="#0F1B25" transform="translate(692,245)"/>
<path d="M0 0 C24 0 24 0 32 4 C34.79129507 8.39840435 35.51567198 12.02181351 34.66015625 17.06640625 C33.51557318 20.41888328 31.45341996 22.48367184 29 25 C29.78375 25.556875 30.5675 26.11375 31.375 26.6875 C34.26745575 29.23561578 34.93072617 30.35654842 36 34 C36.13760722 36.80993945 36.19011573 39.51001924 36.125 42.3125 C36.11597656 43.05306641 36.10695313 43.79363281 36.09765625 44.55664062 C36.07424213 46.37123467 36.03837615 48.18566071 36 50 C34.68 50 33.36 50 32 50 C31.96261719 48.90300781 31.92523437 47.80601562 31.88671875 46.67578125 C31.82103347 45.22132143 31.75458701 43.76689584 31.6875 42.3125 C31.66494141 41.59126953 31.64238281 40.87003906 31.61914062 40.12695312 C31.39586127 35.68166422 30.89015136 32.59037806 28 29 C25.27498092 28.09166031 23.37766029 27.81640015 20.55078125 27.68359375 C19.27944336 27.62075195 19.27944336 27.62075195 17.98242188 27.55664062 C17.10134766 27.51732422 16.22027344 27.47800781 15.3125 27.4375 C13.97348633 27.37272461 13.97348633 27.37272461 12.60742188 27.30664062 C10.40509892 27.20064647 8.20266527 27.09857949 6 27 C6 26.01 6 25.02 6 24 C7.39412109 23.92652344 7.39412109 23.92652344 8.81640625 23.8515625 C18.15946432 23.56056856 18.15946432 23.56056856 27 21 C29.35235238 17.76551547 30.0174078 15.87038992 29.9375 11.875 C28.84355576 8.52023766 27.81460352 7.11095264 25 5 C18.104876 3.6209752 11.01798074 3.4386238 4 3 C4 18.51 4 34.02 4 50 C2.68 50 1.36 50 0 50 C0 33.5 0 17 0 0 Z " fill="#0F1B25" transform="translate(1650,245)"/>
<path d="M0 0 C22 0 22 0 30 4 C34.85155516 9.97114481 35.14785961 14.8069237 35.09765625 22.265625 C35.0962413 23.05902283 35.09482635 23.85242065 35.09336853 24.66986084 C35.08778415 27.19661272 35.07523454 29.72327504 35.0625 32.25 C35.05748298 33.96614455 35.05292043 35.68229049 35.04882812 37.3984375 C35.03781984 41.59899269 35.02056596 45.79948117 35 50 C33.68 50 32.36 50 31 50 C30.98018066 48.91058105 30.96036133 47.82116211 30.93994141 46.69873047 C30.86360942 42.63942167 30.77493539 38.58045847 30.68261719 34.52148438 C30.64444112 32.76797329 30.60956876 31.01438692 30.578125 29.26074219 C30.53222641 26.73345114 30.4742743 24.20667322 30.4140625 21.6796875 C30.40251129 20.90132538 30.39096008 20.12296326 30.37905884 19.3210144 C30.2597825 14.87695832 29.78808397 11.14648441 28 7 C21.40622529 2.79033804 11.47811543 3.36657429 4 3 C4 10.59 4 18.18 4 26 C11.59 26 19.18 26 27 26 C27 26.99 27 27.98 27 29 C19.41 29 11.82 29 4 29 C4 35.93 4 42.86 4 50 C2.68 50 1.36 50 0 50 C0 33.5 0 17 0 0 Z " fill="#0F1B25" transform="translate(886,245)"/>
<path d="M0 0 C22 0 22 0 30 4 C34.85155516 9.97114481 35.14785961 14.8069237 35.09765625 22.265625 C35.0962413 23.05902283 35.09482635 23.85242065 35.09336853 24.66986084 C35.08778415 27.19661272 35.07523454 29.72327504 35.0625 32.25 C35.05748298 33.96614455 35.05292043 35.68229049 35.04882812 37.3984375 C35.03781984 41.59899269 35.02056596 45.79948117 35 50 C33.68 50 32.36 50 31 50 C30.98018066 48.91058105 30.96036133 47.82116211 30.93994141 46.69873047 C30.86360942 42.63942167 30.77493539 38.58045847 30.68261719 34.52148438 C30.64444112 32.76797329 30.60956876 31.01438692 30.578125 29.26074219 C30.53222641 26.73345114 30.4742743 24.20667322 30.4140625 21.6796875 C30.40251129 20.90132538 30.39096008 20.12296326 30.37905884 19.3210144 C30.2597825 14.87695832 29.78808397 11.14648441 28 7 C21.40622529 2.79033804 11.47811543 3.36657429 4 3 C4 10.59 4 18.18 4 26 C11.59 26 19.18 26 27 26 C27 26.99 27 27.98 27 29 C19.41 29 11.82 29 4 29 C4 35.93 4 42.86 4 50 C2.68 50 1.36 50 0 50 C0 33.5 0 17 0 0 Z " fill="#0F1B25" transform="translate(617,245)"/>
<path d="M0 0 C25.93327703 0 25.93327703 0 33.9375 7.3125 C40.06178658 14.2023224 40.62697334 20.17261909 40.40234375 29.265625 C39.70148131 35.77071719 37.80231156 40.64219303 32.734375 44.90625 C28.49540243 47.80516027 25.05698545 50.13420412 19.8671875 50.09765625 C19.06152344 50.09443359 18.25585938 50.09121094 17.42578125 50.08789062 C16.16314453 50.07532227 16.16314453 50.07532227 14.875 50.0625 C14.02550781 50.05798828 13.17601562 50.05347656 12.30078125 50.04882812 C10.20049091 50.03702874 8.1002367 50.01909306 6 50 C6 49.01 6 48.02 6 47 C6.99 46.97421875 7.98 46.9484375 9 46.921875 C19.68554081 46.69972597 19.68554081 46.69972597 29 42 C34.60946772 35.79708733 35.30748644 30.40138822 35.20703125 22.1640625 C34.82966479 16.39676371 32.7203485 13.48849468 28.5625 9.75 C20.50178634 3.04175507 15.04661006 4.33851223 3 3 C3 18.51 3 34.02 3 50 C2.01 50 1.02 50 0 50 C0 33.5 0 17 0 0 Z " fill="#0F1B25" transform="translate(1034,245)"/>
<path d="M0 0 C24 0 24 0 30 3 C34.71708471 8.22703981 35.29585013 11.41014447 35.21484375 18.3046875 C34.83195347 23.10822011 32.95669858 25.15997198 29.4375 28.25 C26.18096156 30.5880276 24.59152973 31.12394353 20.6484375 31.09765625 C19.79765625 31.09443359 18.946875 31.09121094 18.0703125 31.08789062 C16.73613281 31.07532227 16.73613281 31.07532227 15.375 31.0625 C14.4778125 31.05798828 13.580625 31.05347656 12.65625 31.04882812 C10.43743352 31.03702591 8.21874982 31.02056155 6 31 C6 30.01 6 29.02 6 28 C7.08539063 27.96261719 8.17078125 27.92523438 9.2890625 27.88671875 C10.73440739 27.82102125 12.17971839 27.75457524 13.625 27.6875 C14.33785156 27.66494141 15.05070312 27.64238281 15.78515625 27.61914062 C20.49089317 27.38169518 23.96148245 26.64989815 28 24 C29.98753233 21.2128857 30.27314905 18.87976099 30.25 15.5 C30.25515625 14.7471875 30.2603125 13.994375 30.265625 13.21875 C29.96429023 10.70171836 29.35769582 9.13610808 28 7 C20.97403062 2.31602042 12.22723088 3.51420193 4 3 C4 18.51 4 34.02 4 50 C2.68 50 1.36 50 0 50 C0 33.5 0 17 0 0 Z " fill="#0F1B25" transform="translate(482,245)"/>
<path d="M0 0 C1.32 0 2.64 0 4 0 C4.01458252 1.1552417 4.02916504 2.3104834 4.04418945 3.50073242 C4.10226822 7.79677912 4.1795005 12.09230694 4.26245117 16.38793945 C4.29565549 18.2452755 4.32370141 20.10271137 4.34643555 21.96020508 C4.38006442 24.63405798 4.43238374 27.30699993 4.48828125 29.98046875 C4.49467117 30.80773972 4.5010611 31.63501068 4.50764465 32.48735046 C4.6250419 37.11601528 4.97836893 40.26085937 8 44 C13.02173554 47.07453196 16.89324761 47.39426744 22.6953125 46.57421875 C25.96592289 45.75933786 27.76945359 44.50936471 30 42 C32.29615271 37.60405593 32.34250634 33.27165387 32.4140625 28.41796875 C32.43342865 27.60378983 32.4527948 26.7896109 32.4727478 25.95075989 C32.53228752 23.36311148 32.57882583 20.77541797 32.625 18.1875 C32.6632034 16.42771551 32.7022565 14.66794926 32.7421875 12.90820312 C32.83796782 8.60561766 32.92209285 4.3029447 33 0 C33.99 0 34.98 0 36 0 C36.09926507 5.56838851 36.17165521 11.13625604 36.21972656 16.70532227 C36.23977703 18.5976662 36.26702477 20.48994868 36.30175781 22.38208008 C36.35056652 25.11034351 36.37303442 27.83778415 36.390625 30.56640625 C36.41127014 31.40522842 36.43191528 32.2440506 36.45318604 33.10829163 C36.4553756 38.90827582 35.31234923 42.21704846 32 47 C27.16477667 51.38466843 21.01429782 51.55991287 14.76953125 51.31640625 C9.61355508 50.72735961 6.57385052 48.84105496 3.1875 45.0625 C-0.44479285 39.97729 -0.13650529 35.39795534 -0.09765625 29.296875 C-0.0962413 28.45908508 -0.09482635 27.62129517 -0.09336853 26.75811768 C-0.08778197 24.08870843 -0.07523194 21.4193838 -0.0625 18.75 C-0.05748326 16.93750121 -0.05292066 15.12500111 -0.04882812 13.3125 C-0.03781694 8.87496752 -0.02056155 4.43749809 0 0 Z " fill="#0F1B25" transform="translate(1575,245)"/>
<path d="M0 0 C1.32 0 2.64 0 4 0 C4.01458252 1.1552417 4.02916504 2.3104834 4.04418945 3.50073242 C4.10226822 7.79677912 4.1795005 12.09230694 4.26245117 16.38793945 C4.29565549 18.2452755 4.32370141 20.10271137 4.34643555 21.96020508 C4.38006442 24.63405798 4.43238374 27.30699993 4.48828125 29.98046875 C4.49467117 30.80773972 4.5010611 31.63501068 4.50764465 32.48735046 C4.6250419 37.11601528 4.97836893 40.26085937 8 44 C13.02173554 47.07453196 16.89324761 47.39426744 22.6953125 46.57421875 C25.96592289 45.75933786 27.76945359 44.50936471 30 42 C32.29615271 37.60405593 32.34250634 33.27165387 32.4140625 28.41796875 C32.43342865 27.60378983 32.4527948 26.7896109 32.4727478 25.95075989 C32.53228752 23.36311148 32.57882583 20.77541797 32.625 18.1875 C32.6632034 16.42771551 32.7022565 14.66794926 32.7421875 12.90820312 C32.83796782 8.60561766 32.92209285 4.3029447 33 0 C33.99 0 34.98 0 36 0 C36.09926507 5.56838851 36.17165521 11.13625604 36.21972656 16.70532227 C36.23977703 18.5976662 36.26702477 20.48994868 36.30175781 22.38208008 C36.35056652 25.11034351 36.37303442 27.83778415 36.390625 30.56640625 C36.41127014 31.40522842 36.43191528 32.2440506 36.45318604 33.10829163 C36.4553756 38.90827582 35.31234923 42.21704846 32 47 C27.16477667 51.38466843 21.01429782 51.55991287 14.76953125 51.31640625 C9.61355508 50.72735961 6.57385052 48.84105496 3.1875 45.0625 C-0.44479285 39.97729 -0.13650529 35.39795534 -0.09765625 29.296875 C-0.0962413 28.45908508 -0.09482635 27.62129517 -0.09336853 26.75811768 C-0.08778197 24.08870843 -0.07523194 21.4193838 -0.0625 18.75 C-0.05748326 16.93750121 -0.05292066 15.12500111 -0.04882812 13.3125 C-0.03781694 8.87496752 -0.02056155 4.43749809 0 0 Z " fill="#0F1B25" transform="translate(1437,245)"/>
<path d="M0 0 C9.9 0 19.8 0 30 0 C30 0.99 30 1.98 30 3 C21.42 3 12.84 3 4 3 C4 9.27 4 15.54 4 22 C12.58 22 21.16 22 30 22 C30 22.99 30 23.98 30 25 C21.42 25 12.84 25 4 25 C4.103125 27.5575 4.20625 30.115 4.3125 32.75 C4.33739502 33.54889648 4.36229004 34.34779297 4.38793945 35.17089844 C4.60303722 39.32631517 4.9091439 42.09268642 8 45 C10.72501908 45.90833969 12.62233971 46.18359985 15.44921875 46.31640625 C16.29677734 46.35830078 17.14433594 46.40019531 18.01757812 46.44335938 C19.33918945 46.50233398 19.33918945 46.50233398 20.6875 46.5625 C21.58017578 46.60568359 22.47285156 46.64886719 23.39257812 46.69335938 C25.59490108 46.79935353 27.79733473 46.90142051 30 47 C30 47.99 30 48.98 30 50 C26.62516587 50.08767555 23.25062785 50.14061628 19.875 50.1875 C18.92367187 50.21263672 17.97234375 50.23777344 16.9921875 50.26367188 C11.63782686 50.31944647 7.4639281 50.31665686 3 47 C-0.37437317 41.81148014 -0.39971103 37.41434065 -0.29296875 31.4453125 C-0.28872391 30.54376434 -0.28447906 29.64221619 -0.28010559 28.71334839 C-0.26339058 25.85025435 -0.22575192 22.98787921 -0.1875 20.125 C-0.17244387 18.17709354 -0.15875709 16.22917598 -0.14648438 14.28125 C-0.11606969 9.52033744 -0.05733547 4.76096791 0 0 Z " fill="#0F1B25" transform="translate(763,245)"/>
<path d="M0 0 C8.25 0 16.5 0 25 0 C25 0.99 25 1.98 25 3 C18.07 3 11.14 3 4 3 C4 9.93 4 16.86 4 24 C10.93 24 17.86 24 25 24 C25 24.99 25 25.98 25 27 C18.07 27 11.14 27 4 27 C4 34.59 4 42.18 4 50 C2.68 50 1.36 50 0 50 C0 33.5 0 17 0 0 Z " fill="#0F1B25" transform="translate(1375,245)"/>
<path d="M0 0 C10.56 0 21.12 0 32 0 C32 0.99 32 1.98 32 3 C27.38 3 22.76 3 18 3 C18 18.51 18 34.02 18 50 C16.68 50 15.36 50 14 50 C14 34.49 14 18.98 14 3 C9.38 3 4.76 3 0 3 C0 2.01 0 1.02 0 0 Z " fill="#0F1B25" transform="translate(1509,245)"/>
<path d="M0 0 C1.32 0 2.64 0 4 0 C4 15.51 4 31.02 4 47 C11.26 47 18.52 47 26 47 C26 47.99 26 48.98 26 50 C17.42 50 8.84 50 0 50 C0 33.5 0 17 0 0 Z " fill="#0F1B25" transform="translate(554,245)"/>
<path d="M0 0 C0.99 0 1.98 0 3 0 C3.14883824 5.85315939 3.2574473 11.70520644 3.32958984 17.55981445 C3.3596767 19.54926757 3.40055754 21.53858898 3.45263672 23.52758789 C3.52581125 26.39502515 3.55953679 29.26070244 3.5859375 32.12890625 C3.61690521 33.01147598 3.64787292 33.89404572 3.67977905 34.80335999 C3.68287071 40.53621462 2.52732492 43.52977917 -1.41513062 47.71812439 C-4.33824665 50.08240196 -7.090122 50.11463591 -10.6875 50.0625 C-11.89986328 50.04896484 -11.89986328 50.04896484 -13.13671875 50.03515625 C-13.75160156 50.02355469 -14.36648438 50.01195312 -15 50 C-15 49.01 -15 48.02 -15 47 C-14.09507812 46.85304688 -14.09507812 46.85304688 -13.171875 46.703125 C-6.66489184 45.50530824 -6.66489184 45.50530824 -2 41 C-0.74064895 36.89807025 -0.77379357 32.77227385 -0.68359375 28.515625 C-0.6524221 27.29223419 -0.6524221 27.29223419 -0.62062073 26.04412842 C-0.55538703 23.44616895 -0.49636232 20.84811087 -0.4375 18.25 C-0.39428986 16.485667 -0.35067478 14.72134387 -0.30664062 12.95703125 C-0.19973255 8.63812116 -0.09839173 4.31911216 0 0 Z " fill="#0F1B25" transform="translate(844,245)"/>
</svg>
